<?xml version="1.0" encoding="utf-8"?>
<!-- Generator: Adobe Illustrator 16.0.0, SVG Export Plug-In . SVG Version: 6.00 Build 0)  -->
<!DOCTYPE svg PUBLIC "-//W3C//DTD SVG 1.1//EN" "http://www.w3.org/Graphics/SVG/1.1/DTD/svg11.dtd">
<svg version="1.1" id="Layer_1" xmlns="http://www.w3.org/2000/svg" xmlns:xlink="http://www.w3.org/1999/xlink" x="0px" y="0px"
	 width="16.999px" height="16px" viewBox="0 0 16.999 16" enable-background="new 0 0 16.999 16" xml:space="preserve">
<path d="M12.749,0c-1.848,0-3.453,0.974-4.25,2.393C7.704,0.974,6.098,0,4.25,0C1.46,0,0,2.498,0,4.966
	c0,5.764,7.891,10.746,8.227,10.955C8.311,15.974,8.405,16,8.499,16c0.096,0,0.189-0.026,0.273-0.079
	c0.337-0.209,8.227-5.191,8.227-10.955C16.999,2.498,15.54,0,12.749,0z M8.499,14.796c-1.373-0.92-7.437-5.244-7.437-9.83
	c0-1.86,0.997-3.862,3.188-3.862c1.788,0,3.719,1.266,3.719,3.311c0,0.305,0.237,0.552,0.53,0.552c0.294,0,0.532-0.247,0.532-0.552
	c0-2.045,1.93-3.311,3.718-3.311c2.19,0,3.188,2.002,3.188,3.862C15.937,9.546,9.872,13.876,8.499,14.796z"/>
</svg>
