<?xml version="1.0" encoding="utf-8"?><!DOCTYPE svg PUBLIC "-//W3C//DTD SVG 1.1//EN" "http://www.w3.org/Graphics/SVG/1.1/DTD/svg11.dtd"><svg xmlns="http://www.w3.org/2000/svg" xmlns:xlink="http://www.w3.org/1999/xlink"><symbol viewBox="0 0 16.999 16" id="hearth"><path d="M12.75 0C10.9 0 9.295.974 8.5 2.393 7.703.973 6.097 0 4.25 0 1.46 0 0 2.498 0 4.966 0 10.73 7.89 15.712 8.227 15.92c.084.054.178.08.272.08.095 0 .188-.026.272-.08C9.11 15.713 17 10.73 17 4.967 17 2.498 15.54 0 12.75 0zM8.5 14.796c-1.374-.92-7.438-5.244-7.438-9.83 0-1.86.997-3.862 3.188-3.862 1.788 0 3.72 1.266 3.72 3.31 0 .306.236.553.53.553.293 0 .53-.247.53-.552 0-2.045 1.93-3.31 3.72-3.31 2.19 0 3.187 2 3.187 3.86 0 4.58-6.065 8.91-7.438 9.83z"/></symbol></svg>